<?xml version="1.0" standalone="no"?>
<!DOCTYPE svg PUBLIC "-//W3C//DTD SVG 20010904//EN"
 "http://www.w3.org/TR/2001/REC-SVG-20010904/DTD/svg10.dtd">
<svg version="1.0" xmlns="http://www.w3.org/2000/svg"
 width="700.000000pt" height="700.000000pt" viewBox="0 0 700.000000 700.000000"
 preserveAspectRatio="xMidYMid meet">
<metadata>
Created by potrace 1.14, written by Peter Selinger 2001-2017
</metadata>
<g transform="translate(0.000000,700.000000) scale(0.100000,-0.100000)"
fill="#000000" stroke="none">
<path d="M0 3500 l0 -3500 3500 0 3500 0 0 3500 0 3500 -3500 0 -3500 0 0
-3500z m2918 1458 l-3 -873 -872 -3 -873 -2 0 875 0 875 875 0 875 0 -2 -872z
m2912 -3 l0 -875 -872 2 -873 3 -3 873 -2 872 875 0 875 0 0 -875z m-2040
-290 l0 -585 -290 0 -290 0 0 585 0 585 290 0 290 0 0 -585z m-2040 -1165 l0
-290 -290 0 -290 0 0 290 0 290 290 0 290 0 0 -290z m2040 -295 l0 -585 -290
0 -290 0 0 295 0 295 -295 0 -295 0 0 290 0 290 585 0 585 0 0 -585z m880 295
l0 -290 290 0 290 0 0 290 0 290 290 0 290 0 0 -290 0 -290 -290 0 -290 0 0
-290 0 -290 290 0 290 0 0 -440 0 -440 -290 0 -290 0 0 -290 0 -290 -290 0
-290 0 0 290 0 290 -440 0 -440 0 0 -290 0 -290 -290 0 -290 0 0 580 0 580
435 0 434 0 3 148 3 147 293 3 292 2 0 290 0 290 -295 0 -295 0 0 290 0 290
295 0 295 0 0 -290z m-1752 -1457 l2 -873 -875 0 -875 0 0 875 0 875 873 -2
872 -3 3 -872z"/>
<path d="M1750 4960 l0 -290 290 0 290 0 0 290 0 290 -290 0 -290 0 0 -290z"/>
<path d="M4670 4960 l0 -290 290 0 290 0 0 290 0 290 -290 0 -290 0 0 -290z"/>
<path d="M4670 2185 l0 -435 290 0 290 0 0 435 0 435 -290 0 -290 0 0 -435z"/>
<path d="M1750 2040 l0 -290 290 0 290 0 0 290 0 290 -290 0 -290 0 0 -290z"/>
</g>
</svg>
